<svg width="214" height="168" viewBox="0 0 214 168" fill="none" xmlns="http://www.w3.org/2000/svg">
<path d="M31.3235 3.75684C22.5051 13.4797 15.9576 24.8516 10.8194 36.8408C7.29416 45.0663 3.6875 53.5151 3.6875 62.5948C3.6875 76.2726 5.15891 92.9299 13.3948 104.395C17.1433 109.614 21.7826 116.16 27.1632 119.848C41.8898 129.941 62.484 132.469 79.6122 134.805C123.235 140.754 166.551 142.828 210.512 142.828" stroke="#A01892" stroke-width="6" stroke-linecap="round" stroke-linejoin="round"/>
<path d="M209.62 141.937C201.187 136.571 193.687 128.737 186.243 122.077C183.696 119.798 180.337 117.75 178.418 115.192" stroke="#A01892" stroke-width="6" stroke-linecap="round" stroke-linejoin="round"/>
<path d="M209.949 143.068C203.31 145.281 198.505 150.149 192.404 153.365C189.164 155.073 186.354 157.575 183.089 159.208C180.056 160.724 177.013 162.106 173.859 163.34C172.926 163.705 172.068 164.434 171.234 164.712" stroke="#A01892" stroke-width="6" stroke-linecap="round" stroke-linejoin="round"/>
</svg>
