<svg width="349" height="90" viewBox="0 0 349 90" fill="none" xmlns="http://www.w3.org/2000/svg">
<path fill-rule="evenodd" clip-rule="evenodd" d="M151.63 62.6399C152.733 63.4875 154.288 63.9114 156.291 63.9114C159.013 63.9114 161.234 63.1286 162.956 61.5613C164.676 59.9947 165.537 57.953 165.537 55.4352V54.8191H155.752C153.953 54.8191 152.541 55.2304 151.514 56.0514C150.486 56.8741 149.973 57.953 149.973 59.2882C149.973 60.6753 150.524 61.7924 151.63 62.6399ZM147.392 34.3991C150.191 32.3956 153.928 31.394 158.602 31.394C163.688 31.394 167.681 32.6652 170.583 35.2082C173.485 37.7512 174.937 41.3857 174.937 46.1115V70.6921H165.691V66.223H164.613C164.046 67.5593 162.956 68.8175 161.338 69.9986C159.72 71.1798 157.37 71.7707 154.288 71.7707C150.229 71.7707 146.878 70.6803 144.233 68.4957C141.586 66.3133 140.265 63.3215 140.265 59.5189C140.265 55.7181 141.613 52.7771 144.31 50.6962C147.006 48.616 150.589 47.5755 155.058 47.5755H165.537V45.418C165.537 43.5181 164.946 41.9889 163.765 40.8333C162.583 39.6773 160.811 39.0997 158.448 39.0997C156.137 39.0997 154.338 39.6521 153.055 40.7559C151.77 41.8615 150.948 43.3374 150.589 45.1869L141.652 42.1818C142.678 38.9975 144.591 36.403 147.392 34.3991Z" fill="#25385F"/>
<path fill-rule="evenodd" clip-rule="evenodd" d="M182.719 41.1799C184.465 38.0978 186.854 35.6973 189.885 33.9752C192.916 32.2549 196.28 31.394 199.978 31.394C205.114 31.394 209.314 32.7426 212.576 35.4392C215.838 38.1363 217.905 41.7194 218.779 46.1885L209.379 48.192C209.07 45.7264 208.146 43.7225 206.605 42.1818C205.064 40.6408 202.907 39.8699 200.133 39.8699C197.101 39.8699 194.624 40.9233 192.697 43.0294C190.771 45.1362 189.808 47.9872 189.808 51.5826C189.808 55.1786 190.771 58.0297 192.697 60.1354C194.624 62.2426 197.101 63.2949 200.133 63.2949C202.907 63.2949 205.076 62.551 206.643 61.0603C208.21 59.5711 209.224 57.5158 209.687 54.8957L219.087 57.1303C217.957 61.5491 215.774 65.0937 212.538 67.7641C209.302 70.4355 205.114 71.7707 199.978 71.7707C196.28 71.7707 192.916 70.9099 189.885 69.1896C186.854 67.4689 184.465 65.067 182.719 61.9849C180.973 58.9024 180.1 55.4352 180.1 51.5826C180.1 47.7296 180.973 44.262 182.719 41.1799Z" fill="#25385F"/>
<path fill-rule="evenodd" clip-rule="evenodd" d="M264.314 32.4727L246.361 47.8067L264.006 70.6922H252.063L239.427 53.7402L234.11 58.2868V70.6922H224.402V16.7537H234.11V46.497L249.982 32.4727H264.314Z" fill="#25385F"/>
<path fill-rule="evenodd" clip-rule="evenodd" d="M302.914 16.7537V26.0001H278.721V39.0224H301.373V48.2691H278.721V70.6922H268.55V16.7537H302.914Z" fill="#25385F"/>
<path fill-rule="evenodd" clip-rule="evenodd" d="M340.517 20.2211C344.163 23.2529 345.987 27.5928 345.987 33.2435V34.4761H335.971V33.2435C335.971 27.4906 332.657 24.6133 326.031 24.6133C323 24.6133 320.74 25.179 319.251 26.3084C317.76 27.4392 317.016 29.0317 317.016 31.0856C317.016 33.0387 317.748 34.5531 319.212 35.6317C320.676 36.7107 323.103 37.6356 326.494 38.4058L328.266 38.7912C334.48 40.1279 339.168 42.0159 342.327 44.4549C345.486 46.8953 347.066 50.4532 347.066 55.1271C347.066 58.4151 346.23 61.3176 344.561 63.8347C342.892 66.3518 340.517 68.3035 337.435 69.6905C334.353 71.0776 330.757 71.7707 326.648 71.7707C322.487 71.7707 318.8 71.0257 315.591 69.5365C312.38 68.0469 309.889 65.903 308.117 63.102C306.345 60.3031 305.459 56.9762 305.459 53.1236V52.3531H315.476V53.1236C315.476 56.3094 316.45 58.7232 318.403 60.3668C320.355 62.0115 323.103 62.8324 326.648 62.8324C330.038 62.8324 332.619 62.1522 334.391 60.7908C336.163 59.43 337.049 57.6446 337.049 55.4355C337.049 53.3295 336.24 51.7495 334.622 50.6965C333.004 49.6442 330.294 48.7059 326.494 47.8836L324.721 47.4985C318.66 46.1633 314.191 44.3142 311.315 41.9507C308.437 39.588 307 36.069 307 31.394C307 26.5142 308.72 22.6749 312.162 19.8742C315.603 17.0753 320.226 15.675 326.031 15.675C332.041 15.675 336.869 17.1909 340.517 20.2211Z" fill="#25385F"/>
<path fill-rule="evenodd" clip-rule="evenodd" d="M75.0618 20.4131C73.4204 18.7835 72.4484 17.3817 70.4843 18.8173C70.0179 19.1585 66.3325 22.1783 65.8186 22.5278C64.4302 23.4714 63.0732 24.5677 61.7071 25.7586C63.8134 25.575 65.6207 25.8129 66.2634 26.8681C67.8529 29.4773 61.5297 36.2307 59.3223 37.576L44.1981 46.7914C42.4549 50.2392 36.5463 61.8241 35.5541 62.4287C34.3878 63.1395 31.0496 65.1733 30.2054 65.6879C29.3608 66.2025 28.9153 66.1954 28.5716 65.6314C28.2279 65.0674 29.0765 64.4689 30.4037 63.6603C31.5114 62.9851 31.4149 56.6827 31.353 54.618L31.1738 54.7274C30.5372 55.115 29.6922 54.921 29.1164 54.3164L28.8296 54.4909C28.1124 54.9278 27.1767 54.7007 26.7399 53.9835L26.0371 52.83C21.2069 56.1713 17.6036 58.8967 16.2051 60.6991C15.2709 61.9036 12.411 65.8063 12.3819 68.9071C12.3599 71.2814 12.5377 73.1031 15.5545 74.845L33.3791 85.1369C36.7222 87.067 40.8413 87.067 44.1841 85.1369L72.1605 68.9834C75.5037 67.0533 77.5629 63.4861 77.5629 59.6255V27.319C77.5629 24.7555 76.6509 22.3248 75.0618 20.4131Z" fill="#567CC1"/>
<mask id="mask0" mask-type="alpha" maskUnits="userSpaceOnUse" x="0" y="0" width="76" height="56">
<path d="M0 0.360046H75.0613V55.4607H0V0.360046Z" fill="white"/>
</mask>
<g mask="url(#mask0)">
<path fill-rule="evenodd" clip-rule="evenodd" d="M24.0247 49.5275C23.6005 48.8307 23.8211 47.922 24.5174 47.4977L24.8103 47.3192C24.399 46.4666 24.5887 45.4913 25.2904 45.0641L25.375 45.0123C23.3075 43.775 17.8404 40.6277 16.7691 41.2806C15.4419 42.0892 14.5181 42.5636 14.1439 41.9496C13.77 41.3356 13.9564 40.9185 14.8013 40.4035C15.6456 39.8892 18.9837 37.8551 20.15 37.1447C21.1138 36.5577 33.7052 37.086 38.0531 37.2872L52.8634 28.2633C54.9161 27.0126 62.6065 24.7273 65.4469 26.1593C69.9748 23.5595 73.4698 21.552 75.0615 20.4133C74.7466 20.1822 73.5446 18.4861 72.1602 17.961L44.1841 1.80756C40.841 -0.12254 36.7223 -0.12254 33.3791 1.80756L5.40269 17.961C2.05952 19.8911 0 23.4583 0 27.3193L0.00539801 49.2266C0 57.3901 10.2407 55.6547 15.009 54.3475C17.0498 53.7879 20.3365 52.3883 24.4883 50.288L24.0247 49.5275Z" fill="#25385F"/>
</g>
<path fill-rule="evenodd" clip-rule="evenodd" d="M103.515 16.7537V39.0224H123.856V16.7537H134.027V70.6922H123.856V48.2691H103.515V70.6922H93.3447V16.7537H103.515Z" fill="#25385F"/>
</svg>
