<svg width="151" height="768" viewBox="0 0 151 768" fill="none" xmlns="http://www.w3.org/2000/svg">
<path d="M9.185 267L1.485 228.61H9.24L12.87 249.84L13.86 258.365H14.74L15.73 250.06L20.13 228.61H28.765L33.22 250.06L34.21 258.365H35.09L36.08 249.84L39.655 228.61H47.135L39.105 267H30.195L25.685 244.89L24.695 237.245H23.815L22.825 244.89L18.315 267H9.185ZM64.9743 267.66C62.6643 267.66 60.5743 267.312 58.7043 266.615C56.8343 265.882 55.2393 264.727 53.9193 263.15C52.5993 261.537 51.5727 259.483 50.8393 256.99C50.106 254.46 49.7393 251.398 49.7393 247.805C49.7393 244.212 50.106 241.168 50.8393 238.675C51.5727 236.145 52.5993 234.092 53.9193 232.515C55.2393 230.902 56.8343 229.747 58.7043 229.05C60.5743 228.317 62.6643 227.95 64.9743 227.95C67.2843 227.95 69.3743 228.317 71.2443 229.05C73.1143 229.747 74.7093 230.902 76.0293 232.515C77.3493 234.092 78.376 236.145 79.1093 238.675C79.8427 241.168 80.2093 244.212 80.2093 247.805C80.2093 251.398 79.8427 254.46 79.1093 256.99C78.376 259.483 77.3493 261.537 76.0293 263.15C74.7093 264.727 73.1143 265.882 71.2443 266.615C69.3743 267.312 67.2843 267.66 64.9743 267.66ZM64.9743 260.73C67.1743 260.73 68.861 260.07 70.0343 258.75C71.2443 257.43 71.8493 255.45 71.8493 252.81V242.8C71.8493 240.16 71.2443 238.18 70.0343 236.86C68.861 235.54 67.1743 234.88 64.9743 234.88C62.7743 234.88 61.0693 235.54 59.8593 236.86C58.686 238.18 58.0993 240.16 58.0993 242.8V252.81C58.0993 255.45 58.686 257.43 59.8593 258.75C61.0693 260.07 62.7743 260.73 64.9743 260.73ZM94.2124 267H86.3474V228.61H102.957C106.404 228.61 109.026 229.692 110.822 231.855C112.619 234.018 113.517 236.915 113.517 240.545C113.517 243.368 112.986 245.752 111.922 247.695C110.859 249.638 109.282 250.995 107.192 251.765L113.902 267H105.377L99.4374 252.48H94.2124V267ZM101.967 245.935C103.031 245.935 103.856 245.678 104.442 245.165C105.066 244.615 105.377 243.68 105.377 242.36V239.06C105.377 237.74 105.066 236.823 104.442 236.31C103.856 235.76 103.031 235.485 101.967 235.485H94.2124V245.935H101.967ZM132.237 250.005L127.782 256.055V267H119.917V228.61H127.782V241.04L127.452 247.145H128.332L132.127 241.04L140.487 228.61H149.397L137.792 244.615L150.387 267H141.147L132.237 250.005Z" fill="#333333"/>
<line x1="71" y1="768" x2="71" y2="339" stroke="#333333" stroke-width="8"/>
<line x1="71" y1="151" x2="71" y2="-1.74846e-07" stroke="#333333" stroke-width="8"/>
</svg>
