<svg width="39" height="39" viewBox="0 0 39 39" fill="none" xmlns="http://www.w3.org/2000/svg">
<path d="M35.75 6.51627C34.125 7.31252 32.5325 7.6359 30.875 8.12502C29.0534 6.0694 26.3526 5.95565 23.7575 6.9274C21.1624 7.89915 19.4626 10.2749 19.5 13V14.625C14.2269 14.7599 9.53063 12.3581 6.5 8.12502C6.5 8.12502 -0.295751 20.2036 13 26C9.958 28.0264 6.92413 29.393 3.25 29.25C8.6255 32.1799 14.4836 33.1874 19.5553 31.7151C25.3728 30.0251 30.1535 25.6653 31.9881 19.1344C32.5354 17.1481 32.8072 15.096 32.7958 13.0358C32.7925 12.6311 35.2495 8.53127 35.75 6.51465V6.51627Z" stroke="#EEEEEE" stroke-width="2.75" stroke-linecap="round" stroke-linejoin="round"/>
</svg>
